<svg id="Livello_1" data-name="Livello 1" xmlns="http://www.w3.org/2000/svg" viewBox="0 0 125.67 105.12"><defs><style>.cls-1{fill:#fff;}.cls-2{fill:none;stroke:#fff;stroke-miterlimit:10;stroke-width:4px;}</style></defs><title>wexplore-screen</title><path class="cls-1" d="M117.46,87.16H9.54A8.89,8.89,0,0,1,.66,78.28V9.82A8.89,8.89,0,0,1,9.54.94H117.46a8.89,8.89,0,0,1,8.88,8.88V78.28A8.89,8.89,0,0,1,117.46,87.16ZM9.54,4.94A4.89,4.89,0,0,0,4.66,9.82V78.28a4.89,4.89,0,0,0,4.88,4.88H117.46a4.89,4.89,0,0,0,4.88-4.88V9.82a4.89,4.89,0,0,0-4.88-4.88Z" transform="translate(-0.66 -0.94)"/><rect class="cls-1" x="30.61" y="27.72" width="64.45" height="4"/><rect class="cls-1" x="60.67" y="12.66" width="4" height="62.78" transform="translate(17.82 105.69) rotate(-89.88)"/><rect class="cls-1" x="30.61" y="54.5" width="64.45" height="4"/><rect class="cls-1" x="50.56" y="84.69" width="4" height="19.51" transform="translate(-15.97 9.38) rotate(-9.8)"/><path class="cls-2" d="M54.22,104.06" transform="translate(-0.66 -0.94)"/><path class="cls-2" d="M74.1,104.06" transform="translate(-0.66 -0.94)"/><rect class="cls-1" x="66.01" y="92.44" width="19.51" height="4" transform="matrix(0.17, -0.99, 0.99, 0.17, -30.87, 152.06)"/><rect class="cls-1" x="35.65" y="101.12" width="55.7" height="4"/></svg>