<svg id="Livello_1" data-name="Livello 1" xmlns="http://www.w3.org/2000/svg" xmlns:xlink="http://www.w3.org/1999/xlink" viewBox="0 0 134 83"><defs><style>.cls-1{fill:url(#Sfumatura_senza_nome_5);}.cls-2{fill:url(#Sfumatura_senza_nome_5-2);}.cls-3{fill:url(#Sfumatura_senza_nome_5-3);}.cls-4{fill:url(#Sfumatura_senza_nome_5-4);}.cls-5{fill:url(#Sfumatura_senza_nome_5-5);}</style><linearGradient id="Sfumatura_senza_nome_5" x1="7.29" y1="28.95" x2="166.29" y2="37.95" gradientUnits="userSpaceOnUse"><stop offset="0" stop-color="#22c66c"/><stop offset="0.25" stop-color="#22c16f"/><stop offset="0.56" stop-color="#21b17a"/><stop offset="0.91" stop-color="#20978a"/><stop offset="1" stop-color="#208f8f"/></linearGradient><linearGradient id="Sfumatura_senza_nome_5-2" x1="6.36" y1="26.55" x2="165.36" y2="35.55" xlink:href="#Sfumatura_senza_nome_5"/><linearGradient id="Sfumatura_senza_nome_5-3" x1="6.27" y1="46.82" x2="165.27" y2="55.82" gradientTransform="translate(132.48 -77.31) rotate(71.57)" xlink:href="#Sfumatura_senza_nome_5"/><linearGradient id="Sfumatura_senza_nome_5-4" x1="8.45" y1="8.44" x2="167.45" y2="17.44" gradientTransform="translate(10.82 -37.17) rotate(18.44)" xlink:href="#Sfumatura_senza_nome_5"/><linearGradient id="Sfumatura_senza_nome_5-5" x1="5.17" y1="47.66" x2="164.17" y2="56.66" xlink:href="#Sfumatura_senza_nome_5"/></defs><title>wexplore-announcment</title><path class="cls-1" d="M96.5,67l-.28,0L20.42,56.34a22.56,22.56,0,0,1,0-44.68L96.22,1A2,2,0,0,1,98.5,3V65a2,2,0,0,1-2,2Zm-2-61.7L21,15.62a18.56,18.56,0,0,0,0,36.76L94.5,62.7Z" transform="translate(-1 -1)"/><rect class="cls-2" x="106.5" y="31" width="27.5" height="4"/><rect class="cls-3" x="117.87" y="40.21" width="4" height="26.09" transform="translate(30.45 149.13) rotate(-71.57)"/><rect class="cls-4" x="106.83" y="12.75" width="26.09" height="4" transform="translate(0.49 37.68) rotate(-18.44)"/><polygon class="cls-5" points="37 83 18 83 18 14 22 14 22 79 33 79 33 56.24 37 56.24 37 83"/></svg>