<svg id="Livello_1" data-name="Livello 1" xmlns="http://www.w3.org/2000/svg" xmlns:xlink="http://www.w3.org/1999/xlink" viewBox="0 0 131.16 131.16"><defs><style>.cls-1{fill:url(#Sfumatura_senza_nome_40);}.cls-2{fill:url(#Sfumatura_senza_nome_40-3);}.cls-3{fill:url(#Sfumatura_senza_nome_40-4);}.cls-4{fill:url(#Sfumatura_senza_nome_40-5);}.cls-5{fill:url(#Sfumatura_senza_nome_40-6);}.cls-6{stroke:#22c66c;stroke-miterlimit:10;stroke-width:4px;fill:url(#Sfumatura_senza_nome_40-7);}.cls-7{fill:url(#Sfumatura_senza_nome_40-8);}.cls-8{fill:url(#Sfumatura_senza_nome_40-9);}.cls-9{fill:url(#Sfumatura_senza_nome_40-10);}.cls-10{fill:url(#Sfumatura_senza_nome_40-11);}.cls-11{fill:url(#Sfumatura_senza_nome_40-12);}.cls-12{fill:url(#Sfumatura_senza_nome_40-13);}.cls-13{fill:url(#Sfumatura_senza_nome_40-14);}.cls-14{fill:url(#Sfumatura_senza_nome_40-15);}.cls-15{fill:url(#Sfumatura_senza_nome_40-16);}.cls-16{fill:url(#Sfumatura_senza_nome_40-17);}.cls-17{fill:url(#Sfumatura_senza_nome_40-18);}.cls-18{fill:url(#Sfumatura_senza_nome_40-19);}.cls-19{fill:url(#Sfumatura_senza_nome_40-20);}.cls-20{fill:url(#Sfumatura_senza_nome_40-21);}.cls-21{fill:url(#Sfumatura_senza_nome_40-22);}.cls-22{fill:url(#Sfumatura_senza_nome_40-23);}</style><linearGradient id="Sfumatura_senza_nome_40" x1="7.3" y1="67.69" x2="155.3" y2="63.69" gradientUnits="userSpaceOnUse"><stop offset="0" stop-color="#22c66c"/><stop offset="0.28" stop-color="#22c26e"/><stop offset="0.54" stop-color="#21b775"/><stop offset="0.79" stop-color="#21a581"/><stop offset="1" stop-color="#208f8f"/></linearGradient><linearGradient id="Sfumatura_senza_nome_40-3" x1="7.31" y1="67.8" x2="155.31" y2="63.8" xlink:href="#Sfumatura_senza_nome_40"/><linearGradient id="Sfumatura_senza_nome_40-4" x1="7.29" y1="67.2" x2="155.29" y2="63.2" xlink:href="#Sfumatura_senza_nome_40"/><linearGradient id="Sfumatura_senza_nome_40-5" x1="6.14" y1="57.67" x2="154.14" y2="53.67" xlink:href="#Sfumatura_senza_nome_40"/><linearGradient id="Sfumatura_senza_nome_40-6" x1="6.63" y1="75.86" x2="154.63" y2="71.86" xlink:href="#Sfumatura_senza_nome_40"/><linearGradient id="Sfumatura_senza_nome_40-7" x1="75.6" y1="66.09" x2="75.6" y2="66.09" xlink:href="#Sfumatura_senza_nome_40"/><linearGradient id="Sfumatura_senza_nome_40-8" x1="5.03" y1="16.73" x2="153.03" y2="12.73" xlink:href="#Sfumatura_senza_nome_40"/><linearGradient id="Sfumatura_senza_nome_40-9" x1="4.81" y1="8.55" x2="152.81" y2="4.55" xlink:href="#Sfumatura_senza_nome_40"/><linearGradient id="Sfumatura_senza_nome_40-10" x1="7.76" y1="117.63" x2="155.76" y2="113.63" xlink:href="#Sfumatura_senza_nome_40"/><linearGradient id="Sfumatura_senza_nome_40-11" x1="7.98" y1="125.8" x2="155.98" y2="121.8" xlink:href="#Sfumatura_senza_nome_40"/><linearGradient id="Sfumatura_senza_nome_40-12" x1="6.36" y1="65.81" x2="154.36" y2="61.81" xlink:href="#Sfumatura_senza_nome_40"/><linearGradient id="Sfumatura_senza_nome_40-13" x1="6.35" y1="65.7" x2="154.35" y2="61.7" xlink:href="#Sfumatura_senza_nome_40"/><linearGradient id="Sfumatura_senza_nome_40-14" x1="6.43" y1="68.54" x2="154.43" y2="64.54" xlink:href="#Sfumatura_senza_nome_40"/><linearGradient id="Sfumatura_senza_nome_40-15" x1="6.43" y1="68.66" x2="154.43" y2="64.66" xlink:href="#Sfumatura_senza_nome_40"/><linearGradient id="Sfumatura_senza_nome_40-16" x1="6.32" y1="31.46" x2="154.32" y2="27.46" gradientTransform="translate(30.8 -12.76) rotate(45)" xlink:href="#Sfumatura_senza_nome_40"/><linearGradient id="Sfumatura_senza_nome_40-17" x1="5.31" y1="27.26" x2="153.31" y2="23.26" xlink:href="#Sfumatura_senza_nome_40"/><linearGradient id="Sfumatura_senza_nome_40-18" x1="8.3" y1="104.74" x2="156.3" y2="100.74" gradientTransform="translate(102.2 -42.33) rotate(45)" xlink:href="#Sfumatura_senza_nome_40"/><linearGradient id="Sfumatura_senza_nome_40-19" x1="7.47" y1="107.1" x2="155.47" y2="103.1" xlink:href="#Sfumatura_senza_nome_40"/><linearGradient id="Sfumatura_senza_nome_40-20" x1="6.38" y1="33.39" x2="154.38" y2="29.39" gradientTransform="translate(51.71 -63.25) rotate(45)" xlink:href="#Sfumatura_senza_nome_40"/><linearGradient id="Sfumatura_senza_nome_40-21" x1="5.37" y1="29.5" x2="153.37" y2="25.5" xlink:href="#Sfumatura_senza_nome_40"/><linearGradient id="Sfumatura_senza_nome_40-22" x1="8.25" y1="102.81" x2="156.25" y2="98.81" gradientTransform="translate(81.29 8.16) rotate(45)" xlink:href="#Sfumatura_senza_nome_40"/><linearGradient id="Sfumatura_senza_nome_40-23" x1="7.41" y1="104.85" x2="155.41" y2="100.85" xlink:href="#Sfumatura_senza_nome_40"/></defs><title>wexplore-world</title><path class="cls-1" d="M66.5,97.88A31.8,31.8,0,1,1,98.3,66.09,31.83,31.83,0,0,1,66.5,97.88Zm0-59.59a27.8,27.8,0,1,0,27.8,27.8A27.83,27.83,0,0,0,66.5,38.29Z" transform="translate(-0.92 -0.92)"/><rect class="cls-1" x="63.58" y="35.37" width="4" height="59.59"/><path class="cls-2" d="M75.15,96.3l-3.08-2.55.36-.44C76.13,88.87,83,80.6,82.71,67.79c-.29-12.43-4.15-22-11.79-29.22l2.75-2.91c8.46,8,12.72,18.48,13,32,.34,14.32-7.46,23.68-11.2,28.18Z" transform="translate(-0.92 -0.92)"/><path class="cls-3" d="M58.42,96.43C50.57,88.54,46.61,78.36,46.3,65.31,46,51,53.76,41.63,57.5,37.13c.67-.8,1.25-1.5,1.55-2l3.33,2.22c-.42.63-1,1.36-1.8,2.29C56.88,44.13,50,52.4,50.3,65.21c.28,12,3.86,21.27,11,28.4Z" transform="translate(-0.92 -0.92)"/><rect class="cls-4" x="35.78" y="54.06" width="59.59" height="4"/><rect class="cls-5" x="35.78" y="72.27" width="59.59" height="4"/><path class="cls-6" d="M75.6,66.09" transform="translate(-0.92 -0.92)"/><rect class="cls-7" x="63.58" y="4.74" width="4" height="20.69"/><polygon class="cls-8" points="73.53 13.61 65.58 5.66 57.63 13.61 54.8 10.78 65.58 0 76.36 10.78 73.53 13.61"/><rect class="cls-9" x="63.58" y="105.72" width="4" height="20.69"/><polygon class="cls-10" points="65.58 131.16 54.8 120.38 57.63 117.55 65.58 125.5 73.53 117.55 76.36 120.38 65.58 131.16"/><rect class="cls-11" x="4.74" y="63.58" width="20.69" height="4"/><polygon class="cls-12" points="10.78 76.36 0 65.58 10.78 54.8 13.61 57.63 5.66 65.58 13.61 73.53 10.78 76.36"/><rect class="cls-13" x="105.72" y="63.58" width="20.69" height="4"/><polygon class="cls-14" points="120.38 76.36 117.55 73.53 125.5 65.58 117.55 57.63 120.38 54.8 131.16 65.58 120.38 76.36"/><rect class="cls-15" x="28.8" y="20.45" width="4" height="20.69" transform="translate(-13.68 29.88) rotate(-45)"/><polygon class="cls-16" points="23.21 34.45 19.21 34.45 19.21 19.21 34.45 19.21 34.45 23.21 23.21 23.21 23.21 34.45"/><rect class="cls-17" x="100.2" y="91.85" width="4" height="20.69" transform="translate(-43.25 101.28) rotate(-45)"/><polygon class="cls-18" points="111.95 111.95 96.71 111.95 96.71 107.95 107.95 107.95 107.95 96.71 111.95 96.71 111.95 111.95"/><rect class="cls-19" x="91.85" y="28.8" width="20.69" height="4" transform="translate(7.23 80.37) rotate(-45)"/><polygon class="cls-20" points="111.95 34.45 107.95 34.45 107.95 23.21 96.71 23.21 96.71 19.21 111.95 19.21 111.95 34.45"/><rect class="cls-21" x="20.45" y="100.2" width="20.69" height="4" transform="translate(-64.17 50.79) rotate(-45)"/><polygon class="cls-22" points="34.45 111.95 19.21 111.95 19.21 96.71 23.21 96.71 23.21 107.95 34.45 107.95 34.45 111.95"/></svg>